<svg id="Logo_Lockup" data-name="Logo Lockup" xmlns="http://www.w3.org/2000/svg" width="763.338" height="425.72" viewBox="0 0 763.338 425.72">
  <g id="IC23_hostedByCVCA" transform="translate(381.669 212.86)">
    <g id="Group_69" data-name="Group 69" transform="translate(-381.669 -212.86)">
      <path id="Path_15" data-name="Path 15" d="M28.829,31.923v159.73H2.261V31.923Z" transform="translate(0.914 12.902)" fill="#222"/>
      <path id="Path_16" data-name="Path 16" d="M48.532,191.653H24.62V31.923H57.949l27.294,95.61V31.923h23.669v159.73H81.62L48.532,75.962Z" transform="translate(9.951 12.902)" fill="#222"/>
      <path id="Path_17" data-name="Path 17" d="M155.526,31.923h24.395l-26.084,159.73H114.225L88.14,31.923h26.81l20.289,130.295Z" transform="translate(35.624 12.902)" fill="#222"/>
      <path id="Path_18" data-name="Path 18" d="M219.81,99.238v22.819H183.339v46.779h45.891v22.818h-72.46V31.923h72.46V54.742H183.339v44.5Z" transform="translate(63.363 12.902)" fill="#222"/>
      <path id="Path_19" data-name="Path 19" d="M220.893,41.005q9.9-10.38,29.225-10.382t29.225,10.382q9.9,10.386,9.9,29.778V75.8H264.126V69.186q0-8.214-3.381-11.979t-9.9-3.765q-6.521,0-9.9,3.765t-3.381,11.979a28.386,28.386,0,0,0,5.674,17.572q5.674,7.53,17.028,17.114a199.989,199.989,0,0,1,15.217,14.49,57.963,57.963,0,0,1,9.9,15.174,47.976,47.976,0,0,1,4.1,20.309q0,19.4-10.142,29.78t-29.467,10.382q-19.327,0-29.468-10.382t-10.144-29.78v-9.812h25.119v11.41q0,15.521,13.766,15.518t13.766-15.518a28.4,28.4,0,0,0-5.674-17.57q-5.678-7.532-17.028-17.114A199.972,199.972,0,0,1,225,106.267a57.879,57.879,0,0,1-9.9-15.175,47.937,47.937,0,0,1-4.1-20.309Q210.99,51.394,220.893,41.005Z" transform="translate(84.983 12.377)" fill="#222"/>
      <path id="Path_20" data-name="Path 20" d="M350.265,31.923V54.742H322.489V191.653H295.921V54.742H268.145V31.923Z" transform="translate(108.377 12.902)" fill="#222"/>
      <path id="Path_21" data-name="Path 21" d="M66.979,260.484q0,16.4-8.577,25.175T33.49,294.439q-16.338,0-24.913-8.779T0,260.484V190.26q0-16.4,8.577-25.175t24.913-8.779q16.334,0,24.913,8.779t8.577,25.175v13.119H45.744v-14.47q0-13.312-11.641-13.312T22.463,188.909v72.926q0,13.122,11.641,13.119t11.641-13.119V242.543H66.979Z" transform="translate(0 63.175)" fill="#222"/>
      <path id="Path_22" data-name="Path 22" d="M104.393,292.451l-3.881-24.5H72.945l-3.88,24.5H48.441L71.311,157.4h32.877l22.873,135.046Zm-6.944-42.829L86.627,181.328,75.8,249.623Z" transform="translate(19.579 63.619)" fill="#222"/>
      <path id="Path_23" data-name="Path 23" d="M127.685,292.451H107.469V157.4h28.179l23.075,80.835V157.4h20.012V292.451H155.66l-27.975-97.812Z" transform="translate(43.436 63.619)" fill="#222"/>
      <path id="Path_24" data-name="Path 24" d="M217.125,292.451l-3.88-24.5H185.677l-3.88,24.5H161.173L184.044,157.4H216.92l22.873,135.046Zm-6.942-42.829-10.823-68.295-10.822,68.295Z" transform="translate(65.142 63.619)" fill="#222"/>
      <path id="Path_25" data-name="Path 25" d="M255.793,157.4q16.741,0,25.116,8.488t8.373,24.886v68.3q0,16.4-8.373,24.886t-25.116,8.49H220.26V157.4Zm-13.07,115.754h12.66q5.514,0,8.476-3.086t2.961-10.033V189.816q0-6.944-2.961-10.031t-8.476-3.088h-12.66Z" transform="translate(89.023 63.619)" fill="#222"/>
      <path id="Path_26" data-name="Path 26" d="M325.51,292.451l-3.88-24.5H294.062l-3.88,24.5H269.558L292.429,157.4h32.876l22.873,135.046Zm-6.942-42.829-10.823-68.295-10.823,68.295Z" transform="translate(108.948 63.619)" fill="#222"/>
      <g id="Group_68" data-name="Group 68" transform="translate(463.019 43.257)">
        <path id="Path_27" data-name="Path 27" d="M387.055,250.916c7.427-8.984,17.737-20.3,30.61-33.593,12.785-12.944,23.194-24.162,30.933-33.341a134.965,134.965,0,0,0,20.046-32.3,96.766,96.766,0,0,0,8.148-39.556c0-24.5-5.945-44.314-17.671-58.885h0c-11.986-14.887-30.778-22.436-55.851-22.436-24.8,0-43.522,7.776-55.65,23.111-11.86,14.987-17.874,34.86-17.874,59.069v24.226h29.808V111.7c0-16.333,3.513-29.53,10.446-39.22,6.654-9.307,17.239-13.831,32.361-13.831,29.417,0,43.716,17.774,43.716,54.337a75.322,75.322,0,0,1-6.6,31.451,112.8,112.8,0,0,1-16.54,26.332c-6.685,7.862-16.161,18.03-28.112,30.169a461.428,461.428,0,0,0-33.533,36.245,156.155,156.155,0,0,0-22.3,37.894c-6.136,14.568-9.246,31.1-9.246,49.129v19.5h144.32V315.864H360.506a92.066,92.066,0,0,1,7.928-34.717A133.675,133.675,0,0,1,387.055,250.916Z" transform="translate(-329.745 -30.806)" fill="#152a50"/>
        <path id="Path_28" data-name="Path 28" d="M573.977,160.59C581.919,148.8,585.946,134.8,585.946,119v-7.3c0-24.229-6.029-43.906-17.919-58.482h0c-12.135-14.87-30.844-22.411-55.605-22.411s-43.476,7.54-55.6,22.411C444.93,67.788,438.9,87.463,438.9,111.7v15.638h29.808V110.41c0-16.277,3.561-29.215,10.588-38.456,6.809-8.953,17.5-13.3,32.674-13.3s25.848,4.413,32.655,13.493c7.036,9.385,10.606,22.84,10.606,39.987v10.732c0,13.168-3.67,23.6-11.219,31.9-7.479,8.219-17.416,12.611-30.375,13.42H486.614v27.845h26.172c14.172.546,24.543,4.592,31.695,12.364,7.132,7.766,10.749,19,10.749,33.387v23.183c0,17.146-3.569,30.6-10.606,39.988-6.806,9.078-17.489,13.49-32.655,13.49s-25.848-4.412-32.654-13.49c-7.039-9.388-10.607-22.409-10.607-38.7V243.312H438.9v22.079c0,24.236,6.03,43.911,17.919,58.481,12.128,14.873,30.837,22.413,55.6,22.413s43.469-7.54,55.605-22.413c11.889-14.577,17.919-34.252,17.919-58.481V242.208c0-16.071-3.867-30.056-11.5-41.565a56.475,56.475,0,0,0-22.778-19.719A63.265,63.265,0,0,0,573.977,160.59Z" transform="translate(-285.627 -30.806)" fill="#152a50"/>
      </g>
      <path id="Path_29" data-name="Path 29" d="M129.382,28.7,143.734,9.568l11.66,15.548h19.435L160.477,6.039,153,15.967l-2.273-2.991L160.477,0,182,28.7Zm7.175-3.588h14.352l-7.175-9.568Zm0,0h0Z" transform="translate(52.293)" fill="#152a50"/>
      <text id="VANCOUVER" transform="translate(0.701 28.429)" fill="#333" font-size="27" font-family="ProximaNova-Bold, Proxima Nova" font-weight="700"><tspan x="0" y="0">VANCOUVER</tspan></text>
      <text id="HOSTED_BY" data-name="HOSTED BY" transform="translate(466.158 415.586)" fill="#333" font-size="21" font-family="ProximaNova-Bold, Proxima Nova" font-weight="700"><tspan x="0" y="0">HOSTED BY</tspan></text>
      <text id="MAY_30_-_JUNE_1" data-name="MAY 30 - JUNE 1" transform="translate(246.826 28.429)" fill="#333" font-size="27" font-family="ProximaNova-Bold, Proxima Nova" font-weight="700"><tspan x="0" y="0">MAY 30 - JUNE 1</tspan></text>
      <rect id="RGB" width="142.893" height="35.842" transform="translate(616.58 389.878)" fill="none"/>
    </g>
  </g>
  <g id="Group_298" data-name="Group 298" transform="translate(-194 -392.958)">
    <g id="Group_233" data-name="Group 233" transform="translate(830.125 779.444)">
      <path id="Path_50" data-name="Path 50" d="M792.609,1108.939l-11.277,19.531h0l-11.277-19.531H758.779L781.332,1148l22.555-39.064Z" transform="translate(-758.779 -1108.939)" fill="#152a50"/>
    </g>
    <g id="Group_234" data-name="Group 234" transform="translate(906.892 779.444)">
      <path id="Path_52" data-name="Path 52" d="M902.982,1148H914.26l11.277-19.532h0L936.815,1148H948.09l-22.554-39.064Z" transform="translate(-902.982 -1108.939)" fill="#152a50"/>
    </g>
    <g id="Group_235" data-name="Group 235" transform="translate(794.906 779.274)">
      <path id="Path_54" data-name="Path 54" d="M712.325,1137.952a9.631,9.631,0,1,1,8.3-14.509h10.792a19.7,19.7,0,1,0,0,9.756H720.627a9.624,9.624,0,0,1-8.3,4.753" transform="translate(-692.622 -1108.62)" fill="#152a50"/>
    </g>
    <g id="Group_236" data-name="Group 236" transform="translate(870.998 779.274)">
      <path id="Path_55" data-name="Path 55" d="M855.259,1137.952a9.631,9.631,0,1,1,8.3-14.509h10.79a19.7,19.7,0,1,0,0,9.756h-10.79a9.626,9.626,0,0,1-8.3,4.753" transform="translate(-835.557 -1108.62)" fill="#152a50"/>
    </g>
  </g>
</svg>
