<svg xmlns="http://www.w3.org/2000/svg" width="146" height="62.187" viewBox="0 0 146 62.187">
  <g id="Logo.CVCA.WHT" transform="translate(0 0)">
    <g id="Group_30" data-name="Group 30" transform="translate(32.625 0.157)">
      <path id="Path_50" data-name="Path 50" d="M790.118,1108.939l-10.446,18.093h0l-10.446-18.093H758.779l20.893,36.187,20.894-36.187Z" transform="translate(-758.779 -1108.939)" fill="#fff"/>
    </g>
    <g id="Group_31" data-name="Group 31" transform="translate(53.517 18.25)">
      <path id="Path_51" data-name="Path 51" d="M801.143,1145.628h0Z" transform="translate(-801.143 -1145.628)" fill="#fff"/>
    </g>
    <g id="Group_32" data-name="Group 32" transform="translate(103.739 0.157)">
      <path id="Path_52" data-name="Path 52" d="M902.982,1145.126h10.447l10.446-18.093h0l10.447,18.093h10.445l-20.893-36.187Z" transform="translate(-902.982 -1108.939)" fill="#fff"/>
    </g>
    <g id="Group_33" data-name="Group 33" transform="translate(121.032 18.25)">
      <path id="Path_53" data-name="Path 53" d="M938.05,1145.628h0Z" transform="translate(-938.05 -1145.628)" fill="#fff"/>
    </g>
    <g id="Group_34" data-name="Group 34">
      <path id="Path_54" data-name="Path 54" d="M710.874,1135.792a8.921,8.921,0,1,1,7.691-13.441h10a18.252,18.252,0,1,0,0,9.038h-10a8.915,8.915,0,0,1-7.691,4.4" transform="translate(-692.622 -1108.62)" fill="#fff"/>
    </g>
    <g id="Group_35" data-name="Group 35" transform="translate(70.488)">
      <path id="Path_55" data-name="Path 55" d="M853.808,1135.792a8.921,8.921,0,1,1,7.691-13.441h10a18.252,18.252,0,1,0,0,9.038h-10a8.917,8.917,0,0,1-7.691,4.4" transform="translate(-835.557 -1108.62)" fill="#fff"/>
    </g>
    <g id="Group_36" data-name="Group 36" transform="translate(0.747 55.867)">
      <path id="Path_56" data-name="Path 56" d="M694.137,1228.165v-6.258h2.626a1.738,1.738,0,0,1,.78.176,2.007,2.007,0,0,1,.612.463,2.193,2.193,0,0,1,.4.652,2.01,2.01,0,0,1,.146.745,2.17,2.17,0,0,1-.137.762,2.134,2.134,0,0,1-.384.652,1.866,1.866,0,0,1-.595.458,1.723,1.723,0,0,1-.771.172h-1.693v2.177Zm.987-3.05h1.631a.819.819,0,0,0,.383-.088.883.883,0,0,0,.3-.247,1.227,1.227,0,0,0,.194-.37,1.476,1.476,0,0,0,.07-.467,1.348,1.348,0,0,0-.079-.476,1.112,1.112,0,0,0-.22-.366,1.017,1.017,0,0,0-.322-.238.884.884,0,0,0-.375-.084h-1.578Z" transform="translate(-694.137 -1221.907)" fill="#fff"/>
    </g>
    <g id="Group_37" data-name="Group 37" transform="translate(6.362 55.867)">
      <path id="Path_57" data-name="Path 57" d="M705.523,1228.165v-6.258h2.724a1.739,1.739,0,0,1,.78.176,2.011,2.011,0,0,1,.612.463,2.183,2.183,0,0,1,.4.652,2,2,0,0,1,.146.745,2.087,2.087,0,0,1-.088.608,2.135,2.135,0,0,1-.247.537,1.731,1.731,0,0,1-.388.427,1.6,1.6,0,0,1-.5.269l1.472,2.38h-1.119l-1.358-2.177H706.51v2.177Zm.987-3.05h1.727a.8.8,0,0,0,.384-.093.911.911,0,0,0,.3-.255,1.308,1.308,0,0,0,.194-.375,1.413,1.413,0,0,0,.07-.449,1.214,1.214,0,0,0-.084-.45,1.29,1.29,0,0,0-.22-.37,1.054,1.054,0,0,0-.317-.251.816.816,0,0,0-.375-.093H706.51Z" transform="translate(-705.523 -1221.907)" fill="#fff"/>
    </g>
    <g id="Group_38" data-name="Group 38" transform="translate(12.664 55.867)">
      <rect id="Rectangle_36" data-name="Rectangle 36" width="0.987" height="6.258" fill="#fff"/>
    </g>
    <g id="Group_39" data-name="Group 39" transform="translate(15.238 55.867)">
      <path id="Path_58" data-name="Path 58" d="M724.571,1221.906l1.886,5.016,1.877-5.016h1.049l-2.5,6.258h-.846l-2.512-6.258Z" transform="translate(-723.522 -1221.906)" fill="#fff"/>
    </g>
    <g id="Group_40" data-name="Group 40" transform="translate(21.038 55.867)">
      <path id="Path_59" data-name="Path 59" d="M737.768,1221.906h.864l2.468,6.259h-1.04l-.661-1.7h-2.415l-.652,1.7h-1.049Zm1.437,3.826-1-2.689-1.04,2.689Z" transform="translate(-735.282 -1221.906)" fill="#fff"/>
    </g>
    <g id="Group_41" data-name="Group 41" transform="translate(27.27 55.867)">
      <path id="Path_60" data-name="Path 60" d="M753.084,1222.779H751v5.386h-1v-5.386h-2.089v-.873h5.165Z" transform="translate(-747.919 -1221.906)" fill="#fff"/>
    </g>
    <g id="Group_42" data-name="Group 42" transform="translate(34.101 55.867)">
      <path id="Path_61" data-name="Path 61" d="M766.064,1227.292v.872h-4.293v-6.258h4.214v.873h-3.226v1.78h2.795v.82h-2.795v1.913Z" transform="translate(-761.771 -1221.906)" fill="#fff"/>
    </g>
    <g id="Group_43" data-name="Group 43" transform="translate(42.898 55.867)">
      <path id="Path_62" data-name="Path 62" d="M783.9,1227.292v.872h-4.293v-6.258h4.213v.873H780.6v1.78h2.794v.82H780.6v1.913Z" transform="translate(-779.609 -1221.906)" fill="#fff"/>
    </g>
    <g id="Group_44" data-name="Group 44" transform="translate(48.292 55.823)">
      <path id="Path_63" data-name="Path 63" d="M795.176,1227.661a3.013,3.013,0,0,1-.762.37,2.811,2.811,0,0,1-.868.132,2.7,2.7,0,0,1-1.22-.273,3.115,3.115,0,0,1-.947-.714,3.159,3.159,0,0,1-.613-1.014,3.3,3.3,0,0,1-.216-1.173,3.2,3.2,0,0,1,.229-1.2,3.326,3.326,0,0,1,.63-1.014,3.015,3.015,0,0,1,.952-.7,2.787,2.787,0,0,1,1.2-.26,2.677,2.677,0,0,1,1.221.278,3.065,3.065,0,0,1,.943.728,3.349,3.349,0,0,1,.609,1.018,3.252,3.252,0,0,1,.215,1.159,3.206,3.206,0,0,1-.22,1.186,3.267,3.267,0,0,1-.617,1l.82.934h-.952Zm-1.622-.388a1.836,1.836,0,0,0,.547-.079,1.788,1.788,0,0,0,.467-.22l-.89-1.031h.952l.45.52a2.239,2.239,0,0,0,.344-.693,2.723,2.723,0,0,0,.114-.78,2.62,2.62,0,0,0-.141-.859,2.333,2.333,0,0,0-.4-.727,1.977,1.977,0,0,0-.626-.507,1.877,1.877,0,0,0-1.661.009,2,2,0,0,0-.626.52,2.352,2.352,0,0,0-.392.732,2.635,2.635,0,0,0,0,1.688,2.308,2.308,0,0,0,.4.732,1.952,1.952,0,0,0,.63.506,1.787,1.787,0,0,0,.828.19" transform="translate(-790.548 -1221.817)" fill="#fff"/>
    </g>
    <g id="Group_45" data-name="Group 45" transform="translate(56.04 55.867)">
      <path id="Path_64" data-name="Path 64" d="M808.957,1227.318a1.583,1.583,0,0,0,.82-.194,1.548,1.548,0,0,0,.525-.507,2.142,2.142,0,0,0,.282-.714,4.023,4.023,0,0,0,.084-.824v-3.173h1v3.173a4.724,4.724,0,0,1-.15,1.212,2.8,2.8,0,0,1-.476,1,2.276,2.276,0,0,1-.842.675,2.842,2.842,0,0,1-1.238.247,2.783,2.783,0,0,1-1.265-.26,2.274,2.274,0,0,1-.833-.7,2.857,2.857,0,0,1-.458-1,4.8,4.8,0,0,1-.141-1.172v-3.173h.987v3.173a4.068,4.068,0,0,0,.084.833,2.136,2.136,0,0,0,.282.714,1.49,1.49,0,0,0,.529.5,1.611,1.611,0,0,0,.815.19" transform="translate(-806.26 -1221.906)" fill="#fff"/>
    </g>
    <g id="Group_46" data-name="Group 46" transform="translate(63.585 55.867)">
      <rect id="Rectangle_37" data-name="Rectangle 37" width="0.987" height="6.258" transform="translate(0)" fill="#fff"/>
    </g>
    <g id="Group_47" data-name="Group 47" transform="translate(66.238 55.867)">
      <path id="Path_65" data-name="Path 65" d="M832.1,1222.779h-2.08v5.386h-1v-5.386h-2.089v-.873H832.1Z" transform="translate(-826.939 -1221.906)" fill="#fff"/>
    </g>
    <g id="Group_48" data-name="Group 48" transform="translate(72.444 55.867)">
      <path id="Path_66" data-name="Path 66" d="M840.607,1221.906l1.728,3.138,1.745-3.138h1.084l-2.336,4.02v2.239h-.988v-2.256l-2.318-4Z" transform="translate(-839.523 -1221.906)" fill="#fff"/>
    </g>
    <g id="Group_49" data-name="Group 49" transform="translate(81.478 55.867)">
      <path id="Path_67" data-name="Path 67" d="M860.329,1221.906h.864l2.468,6.259h-1.04l-.661-1.7h-2.415l-.652,1.7h-1.049Zm1.437,3.826-1.005-2.689-1.04,2.689Z" transform="translate(-857.843 -1221.906)" fill="#fff"/>
    </g>
    <g id="Group_50" data-name="Group 50" transform="translate(88.328 55.822)">
      <path id="Path_68" data-name="Path 68" d="M875.91,1223.333a1.353,1.353,0,0,0-.255-.207,2.6,2.6,0,0,0-.392-.207,2.854,2.854,0,0,0-.494-.159,2.47,2.47,0,0,0-.551-.062,1.5,1.5,0,0,0-.922.229.759.759,0,0,0-.295.635.681.681,0,0,0,.093.374.786.786,0,0,0,.286.256,2.225,2.225,0,0,0,.485.194c.193.056.42.116.679.181a7.74,7.74,0,0,1,.859.256,2.445,2.445,0,0,1,.648.343,1.4,1.4,0,0,1,.41.5,1.609,1.609,0,0,1,.146.718,1.742,1.742,0,0,1-.181.82,1.546,1.546,0,0,1-.494.56,2.174,2.174,0,0,1-.727.317,3.735,3.735,0,0,1-.89.1,4.42,4.42,0,0,1-1.379-.217,3.939,3.939,0,0,1-1.2-.63l.449-.847a2.044,2.044,0,0,0,.331.256,3,3,0,0,0,.5.26,4.383,4.383,0,0,0,.621.2,2.859,2.859,0,0,0,.7.083,1.67,1.67,0,0,0,.9-.2.666.666,0,0,0,.318-.6.643.643,0,0,0-.119-.4,1.025,1.025,0,0,0-.339-.277,2.969,2.969,0,0,0-.538-.216q-.317-.1-.723-.2a7.358,7.358,0,0,1-.815-.26,2.044,2.044,0,0,1-.578-.331,1.294,1.294,0,0,1-.348-.454,1.5,1.5,0,0,1-.119-.63,1.815,1.815,0,0,1,.176-.815,1.745,1.745,0,0,1,.48-.6,2.1,2.1,0,0,1,.719-.366,3.133,3.133,0,0,1,.9-.124,3.3,3.3,0,0,1,1.172.2,3.892,3.892,0,0,1,.943.5Z" transform="translate(-871.732 -1221.816)" fill="#fff"/>
    </g>
    <g id="Group_51" data-name="Group 51" transform="translate(94.541 55.822)">
      <path id="Path_69" data-name="Path 69" d="M888.51,1223.333a1.361,1.361,0,0,0-.255-.207,2.6,2.6,0,0,0-.392-.207,2.858,2.858,0,0,0-.494-.159,2.47,2.47,0,0,0-.551-.062,1.5,1.5,0,0,0-.922.229.759.759,0,0,0-.295.635.681.681,0,0,0,.093.374.785.785,0,0,0,.286.256,2.223,2.223,0,0,0,.485.194q.291.084.679.181a7.748,7.748,0,0,1,.859.256,2.445,2.445,0,0,1,.648.343,1.4,1.4,0,0,1,.41.5,1.611,1.611,0,0,1,.146.718,1.742,1.742,0,0,1-.181.82,1.54,1.54,0,0,1-.494.56,2.173,2.173,0,0,1-.727.317,3.735,3.735,0,0,1-.89.1,4.42,4.42,0,0,1-1.379-.217,3.939,3.939,0,0,1-1.2-.63l.449-.847a2.066,2.066,0,0,0,.331.256,3.006,3.006,0,0,0,.5.26,4.385,4.385,0,0,0,.621.2,2.859,2.859,0,0,0,.7.083,1.669,1.669,0,0,0,.9-.2.666.666,0,0,0,.318-.6.643.643,0,0,0-.119-.4,1.019,1.019,0,0,0-.339-.277,2.967,2.967,0,0,0-.538-.216q-.317-.1-.723-.2a7.352,7.352,0,0,1-.815-.26,2.042,2.042,0,0,1-.577-.331,1.3,1.3,0,0,1-.348-.454,1.506,1.506,0,0,1-.119-.63,1.815,1.815,0,0,1,.176-.815,1.743,1.743,0,0,1,.48-.6,2.1,2.1,0,0,1,.719-.366,3.133,3.133,0,0,1,.9-.124,3.3,3.3,0,0,1,1.172.2,3.891,3.891,0,0,1,.943.5Z" transform="translate(-884.332 -1221.816)" fill="#fff"/>
    </g>
    <g id="Group_52" data-name="Group 52" transform="translate(100.835 55.822)">
      <path id="Path_70" data-name="Path 70" d="M900.091,1228.163a2.748,2.748,0,0,1-1.221-.269,3.039,3.039,0,0,1-.947-.714,3.216,3.216,0,0,1-.613-1.018,3.3,3.3,0,0,1-.216-1.173,3.2,3.2,0,0,1,.229-1.2,3.312,3.312,0,0,1,.63-1.014,3,3,0,0,1,.952-.7,2.787,2.787,0,0,1,1.2-.26,2.672,2.672,0,0,1,1.221.278,3.07,3.07,0,0,1,.943.727,3.356,3.356,0,0,1,.609,1.018,3.269,3.269,0,0,1-.009,2.358,3.175,3.175,0,0,1-.63,1.01,3.116,3.116,0,0,1-.957.7,2.768,2.768,0,0,1-1.194.26m-1.992-3.173a2.629,2.629,0,0,0,.141.855,2.312,2.312,0,0,0,.4.731,1.949,1.949,0,0,0,.63.507,1.784,1.784,0,0,0,.828.19,1.738,1.738,0,0,0,.842-.2,1.992,1.992,0,0,0,.621-.525,2.361,2.361,0,0,0,.388-.731,2.668,2.668,0,0,0,.132-.829,2.623,2.623,0,0,0-.141-.859,2.282,2.282,0,0,0-.4-.722,2,2,0,0,0-.626-.5,1.744,1.744,0,0,0-.815-.189,1.767,1.767,0,0,0-.846.2,2.014,2.014,0,0,0-.626.516,2.3,2.3,0,0,0-.392.727,2.615,2.615,0,0,0-.137.833" transform="translate(-897.094 -1221.816)" fill="#fff"/>
    </g>
    <g id="Group_53" data-name="Group 53" transform="translate(108.292 55.832)">
      <path id="Path_71" data-name="Path 71" d="M912.215,1224.955a3.282,3.282,0,0,1,.2-1.124,3.105,3.105,0,0,1,.6-1,3,3,0,0,1,.956-.719,2.9,2.9,0,0,1,1.278-.273,2.709,2.709,0,0,1,1.463.379,2.464,2.464,0,0,1,.917.987l-.776.52a1.762,1.762,0,0,0-.318-.476,1.547,1.547,0,0,0-.405-.309,1.748,1.748,0,0,0-.458-.163,2.362,2.362,0,0,0-.459-.048,1.8,1.8,0,0,0-.864.2,1.924,1.924,0,0,0-.622.525,2.344,2.344,0,0,0-.379.731,2.688,2.688,0,0,0-.128.811,2.541,2.541,0,0,0,.15.872,2.348,2.348,0,0,0,.419.732,2.066,2.066,0,0,0,.639.507,1.756,1.756,0,0,0,.811.189,2.059,2.059,0,0,0,.471-.057,1.766,1.766,0,0,0,.467-.185,1.869,1.869,0,0,0,.415-.321,1.621,1.621,0,0,0,.313-.467l.82.467a1.9,1.9,0,0,1-.423.621,2.7,2.7,0,0,1-.617.454,3.14,3.14,0,0,1-.727.282,3.041,3.041,0,0,1-.754.1A2.585,2.585,0,0,1,914,1227.9a3.16,3.16,0,0,1-.943-.736,3.4,3.4,0,0,1-.617-1.031,3.278,3.278,0,0,1-.22-1.177" transform="translate(-912.215 -1221.835)" fill="#fff"/>
    </g>
    <g id="Group_54" data-name="Group 54" transform="translate(115.546 55.867)">
      <rect id="Rectangle_38" data-name="Rectangle 38" width="0.987" height="6.258" fill="#fff"/>
    </g>
    <g id="Group_55" data-name="Group 55" transform="translate(118.129 55.867)">
      <path id="Path_72" data-name="Path 72" d="M934.648,1221.906h.863l2.468,6.259h-1.04l-.661-1.7h-2.415l-.652,1.7h-1.049Zm1.437,3.826-1-2.689-1.041,2.689Z" transform="translate(-932.162 -1221.906)" fill="#fff"/>
    </g>
    <g id="Group_56" data-name="Group 56" transform="translate(124.36 55.867)">
      <path id="Path_73" data-name="Path 73" d="M949.964,1222.779h-2.08v5.386h-1v-5.386H944.8v-.873h5.165Z" transform="translate(-944.799 -1221.906)" fill="#fff"/>
    </g>
    <g id="Group_57" data-name="Group 57" transform="translate(131.192 55.867)">
      <rect id="Rectangle_39" data-name="Rectangle 39" width="0.987" height="6.258" fill="#fff"/>
    </g>
    <g id="Group_58" data-name="Group 58" transform="translate(133.5 55.822)">
      <path id="Path_74" data-name="Path 74" d="M966.33,1228.163a2.747,2.747,0,0,1-1.221-.269,3.041,3.041,0,0,1-.947-.714,3.222,3.222,0,0,1-.613-1.018,3.3,3.3,0,0,1-.216-1.173,3.2,3.2,0,0,1,.229-1.2,3.34,3.34,0,0,1,.631-1.014,3,3,0,0,1,.952-.7,2.781,2.781,0,0,1,1.2-.26,2.668,2.668,0,0,1,1.221.278,3.057,3.057,0,0,1,.943.727,3.332,3.332,0,0,1,.609,1.018,3.267,3.267,0,0,1-.008,2.358,3.16,3.16,0,0,1-.631,1.01,3.108,3.108,0,0,1-.956.7,2.766,2.766,0,0,1-1.194.26m-1.992-3.173a2.643,2.643,0,0,0,.141.855,2.328,2.328,0,0,0,.4.731,1.947,1.947,0,0,0,.63.507,1.785,1.785,0,0,0,.828.19,1.736,1.736,0,0,0,.842-.2,1.982,1.982,0,0,0,.622-.525,2.348,2.348,0,0,0,.388-.731,2.673,2.673,0,0,0-.008-1.688,2.292,2.292,0,0,0-.4-.722,2.014,2.014,0,0,0-.626-.5,1.878,1.878,0,0,0-1.661.009,2.008,2.008,0,0,0-.626.516,2.3,2.3,0,0,0-.393.727,2.613,2.613,0,0,0-.137.833" transform="translate(-963.333 -1221.816)" fill="#fff"/>
    </g>
    <g id="Group_59" data-name="Group 59" transform="translate(140.649 55.867)">
      <path id="Path_75" data-name="Path 75" d="M978.817,1223.757v4.407h-.987v-6.259h.776l3.579,4.513v-4.5h1v6.249h-.82Z" transform="translate(-977.83 -1221.906)" fill="#fff"/>
    </g>
    <g id="Group_60" data-name="Group 60" transform="translate(0.743 51.927)">
      <path id="Path_76" data-name="Path 76" d="M839.376,1214.358H770.089v-.441h69.288Zm-76.135,0H694.129v-.441h69.112Z" transform="translate(-694.129 -1213.917)" fill="#fff"/>
    </g>
    <g id="Group_61" data-name="Group 61" transform="translate(71.492 49.424)">
      <path id="Path_77" data-name="Path 77" d="M840.708,1213.277l-.4-.419a2.006,2.006,0,0,1-.6.358,1.877,1.877,0,0,1-.676.123,1.663,1.663,0,0,1-.586-.1,1.423,1.423,0,0,1-.456-.268,1.185,1.185,0,0,1-.4-.892,1.141,1.141,0,0,1,.065-.389,1.373,1.373,0,0,1,.176-.333,1.711,1.711,0,0,1,.259-.284,3.636,3.636,0,0,1,.308-.241,3.488,3.488,0,0,1-.238-.283,1.812,1.812,0,0,1-.154-.244,1.061,1.061,0,0,1-.086-.222.883.883,0,0,1-.028-.225.941.941,0,0,1,.09-.41.99.99,0,0,1,.244-.324,1.085,1.085,0,0,1,.367-.21,1.382,1.382,0,0,1,.46-.074,1.464,1.464,0,0,1,.426.062,1.131,1.131,0,0,1,.357.179.84.84,0,0,1,.244.293.925.925,0,0,1,.025.737,1.221,1.221,0,0,1-.176.293,1.858,1.858,0,0,1-.262.265,3.928,3.928,0,0,1-.324.244l.987,1.037a2.242,2.242,0,0,0,.164-.466,2.316,2.316,0,0,0,.059-.534h.555a3.051,3.051,0,0,1-.1.774,2.393,2.393,0,0,1-.278.639l.876.913Zm-1.6-.475a1.163,1.163,0,0,0,.441-.087,1.324,1.324,0,0,0,.392-.247l-1.135-1.2a1.916,1.916,0,0,0-.407.376.706.706,0,0,0-.154.445.635.635,0,0,0,.068.293.66.66,0,0,0,.188.225.927.927,0,0,0,.274.145,1.019,1.019,0,0,0,.333.053m-.592-2.962a.4.4,0,0,0,.019.12.6.6,0,0,0,.065.133,1.209,1.209,0,0,0,.13.166l.207.229a2.642,2.642,0,0,0,.447-.342.5.5,0,0,0,.163-.361.4.4,0,0,0-.139-.318.524.524,0,0,0-.355-.12.534.534,0,0,0-.386.145.465.465,0,0,0-.151.349" transform="translate(-837.592 -1208.841)" fill="#fff"/>
    </g>
    <g id="Group_62" data-name="Group 62" transform="translate(0.308 42.152)">
      <path id="Path_78" data-name="Path 78" d="M693.247,1197.215a3.282,3.282,0,0,1,.2-1.124,3.106,3.106,0,0,1,.6-1.005,3.008,3.008,0,0,1,.956-.718,2.9,2.9,0,0,1,1.278-.273,2.713,2.713,0,0,1,1.463.379,2.469,2.469,0,0,1,.917.987l-.776.52a1.77,1.77,0,0,0-.318-.477,1.542,1.542,0,0,0-.405-.308,1.75,1.75,0,0,0-.459-.163,2.314,2.314,0,0,0-.458-.048,1.805,1.805,0,0,0-.864.2,1.92,1.92,0,0,0-.621.525,2.332,2.332,0,0,0-.379.731,2.679,2.679,0,0,0-.128.811,2.553,2.553,0,0,0,.149.873,2.381,2.381,0,0,0,.419.732,2.067,2.067,0,0,0,.639.506,1.751,1.751,0,0,0,.811.19,2.044,2.044,0,0,0,.471-.058,1.749,1.749,0,0,0,.467-.185,1.87,1.87,0,0,0,.414-.322,1.606,1.606,0,0,0,.313-.467l.82.467a1.918,1.918,0,0,1-.423.621,2.693,2.693,0,0,1-.617.454,3.162,3.162,0,0,1-.727.282,3.061,3.061,0,0,1-.753.1,2.6,2.6,0,0,1-1.208-.282,3.172,3.172,0,0,1-.943-.736,3.385,3.385,0,0,1-.617-1.031,3.272,3.272,0,0,1-.22-1.177" transform="translate(-693.247 -1194.095)" fill="#fff"/>
    </g>
    <g id="Group_63" data-name="Group 63" transform="translate(7.069 42.187)">
      <path id="Path_79" data-name="Path 79" d="M709.442,1194.166h.864l2.468,6.258h-1.04l-.661-1.7h-2.415l-.653,1.7h-1.049Zm1.437,3.825-1-2.689-1.041,2.689Z" transform="translate(-706.956 -1194.166)" fill="#fff"/>
    </g>
    <g id="Group_64" data-name="Group 64" transform="translate(14.288 42.187)">
      <path id="Path_80" data-name="Path 80" d="M722.582,1196.017v4.407h-.987v-6.258h.776l3.579,4.513v-4.5h1v6.25h-.819Z" transform="translate(-721.595 -1194.166)" fill="#fff"/>
    </g>
    <g id="Group_65" data-name="Group 65" transform="translate(21.031 42.187)">
      <path id="Path_81" data-name="Path 81" d="M737.754,1194.166h.864l2.468,6.258h-1.04l-.661-1.7h-2.415l-.652,1.7h-1.049Zm1.437,3.825-1-2.689-1.04,2.689Z" transform="translate(-735.268 -1194.166)" fill="#fff"/>
    </g>
    <g id="Group_66" data-name="Group 66" transform="translate(28.426 42.187)">
      <path id="Path_82" data-name="Path 82" d="M750.264,1200.425v-6.258h2.221a3.311,3.311,0,0,1,1.327.247,2.728,2.728,0,0,1,.952.67,2.81,2.81,0,0,1,.577.991,3.733,3.733,0,0,1,.194,1.212,3.675,3.675,0,0,1-.216,1.292,2.823,2.823,0,0,1-.613.987,2.715,2.715,0,0,1-.961.635,3.382,3.382,0,0,1-1.26.225Zm4.266-3.138a2.892,2.892,0,0,0-.137-.908,1.983,1.983,0,0,0-.4-.71,1.865,1.865,0,0,0-.644-.463,2.114,2.114,0,0,0-.864-.168h-1.234v4.513h1.234a2.128,2.128,0,0,0,.877-.172,1.805,1.805,0,0,0,.644-.476,2.057,2.057,0,0,0,.392-.719,2.937,2.937,0,0,0,.132-.9" transform="translate(-750.264 -1194.167)" fill="#fff"/>
    </g>
    <g id="Group_67" data-name="Group 67" transform="translate(35.011 42.187)">
      <rect id="Rectangle_40" data-name="Rectangle 40" width="0.987" height="6.258" transform="translate(0)" fill="#fff"/>
    </g>
    <g id="Group_68" data-name="Group 68" transform="translate(37.39 42.187)">
      <path id="Path_83" data-name="Path 83" d="M770.928,1194.166h.863l2.468,6.258h-1.04l-.661-1.7h-2.415l-.652,1.7h-1.049Zm1.437,3.825-1.005-2.689-1.04,2.689Z" transform="translate(-768.442 -1194.166)" fill="#fff"/>
    </g>
    <g id="Group_69" data-name="Group 69" transform="translate(44.609 42.187)">
      <path id="Path_84" data-name="Path 84" d="M784.067,1196.017v4.407h-.987v-6.258h.776l3.579,4.513v-4.5h1v6.25h-.82Z" transform="translate(-783.08 -1194.166)" fill="#fff"/>
    </g>
    <g id="Group_70" data-name="Group 70" transform="translate(55.433 42.187)">
      <path id="Path_85" data-name="Path 85" d="M806.078,1194.167l1.886,5.015,1.877-5.015h1.049l-2.5,6.258h-.846l-2.512-6.258Z" transform="translate(-805.029 -1194.167)" fill="#fff"/>
    </g>
    <g id="Group_71" data-name="Group 71" transform="translate(62.688 42.187)">
      <path id="Path_86" data-name="Path 86" d="M824.032,1199.552v.873H819.74v-6.259h4.213v.873h-3.226v1.78h2.795v.82h-2.795v1.913Z" transform="translate(-819.74 -1194.166)" fill="#fff"/>
    </g>
    <g id="Group_72" data-name="Group 72" transform="translate(68.805 42.187)">
      <path id="Path_87" data-name="Path 87" d="M833.131,1196.017v4.407h-.987v-6.258h.776l3.579,4.513v-4.5h1v6.25h-.82Z" transform="translate(-832.144 -1194.166)" fill="#fff"/>
    </g>
    <g id="Group_73" data-name="Group 73" transform="translate(75.795 42.187)">
      <path id="Path_88" data-name="Path 88" d="M851.483,1195.038H849.4v5.386h-1v-5.386h-2.089v-.873h5.165Z" transform="translate(-846.318 -1194.166)" fill="#fff"/>
    </g>
    <g id="Group_74" data-name="Group 74" transform="translate(82.511 42.187)">
      <path id="Path_89" data-name="Path 89" d="M862.635,1199.578a1.576,1.576,0,0,0,.82-.194,1.539,1.539,0,0,0,.525-.507,2.143,2.143,0,0,0,.282-.714,4.022,4.022,0,0,0,.084-.824v-3.173h1v3.173a4.727,4.727,0,0,1-.15,1.212,2.8,2.8,0,0,1-.476,1,2.27,2.27,0,0,1-.842.674,2.844,2.844,0,0,1-1.238.247,2.785,2.785,0,0,1-1.265-.26,2.278,2.278,0,0,1-.833-.7,2.854,2.854,0,0,1-.458-1,4.812,4.812,0,0,1-.141-1.172v-3.173h.987v3.173a4.076,4.076,0,0,0,.083.833,2.146,2.146,0,0,0,.282.714,1.5,1.5,0,0,0,.529.5,1.618,1.618,0,0,0,.815.189" transform="translate(-859.938 -1194.166)" fill="#fff"/>
    </g>
    <g id="Group_75" data-name="Group 75" transform="translate(89.677 42.187)">
      <path id="Path_90" data-name="Path 90" d="M874.469,1200.424v-6.258h2.724a1.738,1.738,0,0,1,.78.176,2,2,0,0,1,.612.463,2.18,2.18,0,0,1,.4.652,2.009,2.009,0,0,1,.146.745,2.088,2.088,0,0,1-.088.608,2.122,2.122,0,0,1-.247.538,1.725,1.725,0,0,1-.388.427,1.6,1.6,0,0,1-.5.269l1.472,2.38h-1.119l-1.358-2.177h-1.445v2.177Zm.987-3.05h1.728a.8.8,0,0,0,.383-.093.906.906,0,0,0,.3-.255,1.305,1.305,0,0,0,.194-.375,1.415,1.415,0,0,0,.07-.449,1.215,1.215,0,0,0-.084-.45,1.279,1.279,0,0,0-.221-.37,1.043,1.043,0,0,0-.317-.251.816.816,0,0,0-.375-.093h-1.675Z" transform="translate(-874.469 -1194.166)" fill="#fff"/>
    </g>
    <g id="Group_76" data-name="Group 76" transform="translate(96.306 42.187)">
      <path id="Path_91" data-name="Path 91" d="M892.2,1199.552v.873H887.91v-6.259h4.213v.873H888.9v1.78h2.794v.82H888.9v1.913Z" transform="translate(-887.91 -1194.166)" fill="#fff"/>
    </g>
    <g id="Group_77" data-name="Group 77" transform="translate(105.535 42.152)">
      <path id="Path_92" data-name="Path 92" d="M906.624,1197.215a3.282,3.282,0,0,1,.2-1.124,3.106,3.106,0,0,1,.6-1.005,3,3,0,0,1,.956-.718,2.9,2.9,0,0,1,1.278-.273,2.713,2.713,0,0,1,1.463.379,2.469,2.469,0,0,1,.917.987l-.776.52a1.745,1.745,0,0,0-.317-.477,1.543,1.543,0,0,0-.406-.308,1.747,1.747,0,0,0-.458-.163,2.315,2.315,0,0,0-.458-.048,1.8,1.8,0,0,0-.864.2,1.922,1.922,0,0,0-.621.525,2.332,2.332,0,0,0-.379.731,2.675,2.675,0,0,0-.128.811,2.541,2.541,0,0,0,.149.873,2.379,2.379,0,0,0,.419.732,2.062,2.062,0,0,0,.639.506,1.75,1.75,0,0,0,.811.19,2.044,2.044,0,0,0,.471-.058,1.743,1.743,0,0,0,.467-.185,1.867,1.867,0,0,0,.414-.322,1.609,1.609,0,0,0,.313-.467l.82.467a1.92,1.92,0,0,1-.423.621,2.7,2.7,0,0,1-.617.454,3.173,3.173,0,0,1-.727.282,3.064,3.064,0,0,1-.754.1,2.6,2.6,0,0,1-1.208-.282,3.171,3.171,0,0,1-.943-.736,3.388,3.388,0,0,1-.617-1.031,3.272,3.272,0,0,1-.22-1.177" transform="translate(-906.624 -1194.095)" fill="#fff"/>
    </g>
    <g id="Group_78" data-name="Group 78" transform="translate(112.207 42.187)">
      <path id="Path_93" data-name="Path 93" d="M922.64,1194.166h.863l2.468,6.258h-1.04l-.661-1.7h-2.416l-.652,1.7h-1.049Zm1.437,3.825-1-2.689-1.04,2.689Z" transform="translate(-920.154 -1194.166)" fill="#fff"/>
    </g>
    <g id="Group_79" data-name="Group 79" transform="translate(119.602 42.187)">
      <path id="Path_94" data-name="Path 94" d="M935.15,1200.424v-6.258h2.627a1.741,1.741,0,0,1,.78.176,2.012,2.012,0,0,1,.613.463,2.182,2.182,0,0,1,.4.652,2.012,2.012,0,0,1,.145.745,2.175,2.175,0,0,1-.52,1.415,1.867,1.867,0,0,1-.6.458,1.723,1.723,0,0,1-.771.172h-1.693v2.177Zm.987-3.05h1.631a.827.827,0,0,0,.383-.088.878.878,0,0,0,.3-.247,1.242,1.242,0,0,0,.194-.37,1.461,1.461,0,0,0,.071-.467,1.345,1.345,0,0,0-.079-.476,1.111,1.111,0,0,0-.22-.365,1.008,1.008,0,0,0-.322-.238.883.883,0,0,0-.375-.084h-1.578Z" transform="translate(-935.15 -1194.166)" fill="#fff"/>
    </g>
    <g id="Group_80" data-name="Group 80" transform="translate(125.896 42.187)">
      <rect id="Rectangle_41" data-name="Rectangle 41" width="0.987" height="6.258" fill="#fff"/>
    </g>
    <g id="Group_81" data-name="Group 81" transform="translate(128.522 42.187)">
      <path id="Path_95" data-name="Path 95" d="M958.4,1195.038h-2.08v5.386h-1v-5.386h-2.089v-.873H958.4Z" transform="translate(-953.238 -1194.166)" fill="#fff"/>
    </g>
    <g id="Group_82" data-name="Group 82" transform="translate(134.243 42.187)">
      <path id="Path_96" data-name="Path 96" d="M967.324,1194.166h.864l2.468,6.258h-1.04l-.661-1.7h-2.415l-.652,1.7h-1.049Zm1.437,3.825-1-2.689-1.04,2.689Z" transform="translate(-964.838 -1194.166)" fill="#fff"/>
    </g>
    <g id="Group_83" data-name="Group 83" transform="translate(141.638 42.187)">
      <path id="Path_97" data-name="Path 97" d="M979.834,1200.425v-6.258h.987v5.385h3.358v.873Z" transform="translate(-979.834 -1194.167)" fill="#fff"/>
    </g>
  </g>
</svg>
