<svg xmlns="http://www.w3.org/2000/svg" width="336" height="237" viewBox="0 0 336 237">
  <g id="Group_245" data-name="Group 245" transform="translate(-211 -4500)">
    <g id="Group_244" data-name="Group 244" transform="translate(211 4500)">
      <g id="Group_243" data-name="Group 243" transform="translate(196.919 34.785)">
        <path id="Path_805" data-name="Path 805" d="M175.638,122.2c3.439-4.17,8.213-9.424,14.176-15.6,5.92-6.009,10.74-11.217,14.324-15.479a62.707,62.707,0,0,0,9.284-15A45.033,45.033,0,0,0,217.2,57.766c0-11.377-2.753-20.575-8.184-27.341h0c-5.551-6.912-14.253-10.416-25.865-10.416-11.485,0-20.156,3.61-25.772,10.73C151.882,37.7,149.1,46.924,149.1,58.165V69.413h13.8V57.567c0-7.584,1.627-13.711,4.838-18.21,3.082-4.322,7.983-6.422,14.987-6.422,13.623,0,20.245,8.252,20.245,25.229a35.054,35.054,0,0,1-3.057,14.6,52.435,52.435,0,0,1-7.659,12.226c-3.1,3.65-7.484,8.371-13.02,14.007a213.928,213.928,0,0,0-15.529,16.828,72.542,72.542,0,0,0-10.327,17.595,58.641,58.641,0,0,0-4.281,22.809v9.056h66.836V152.359h-52.59a42.851,42.851,0,0,1,3.672-16.12A62.133,62.133,0,0,1,175.638,122.2Z" transform="translate(-149.097 -20.009)" fill="#152a50"/>
        <path id="Path_806" data-name="Path 806" d="M267.524,80.266a33.965,33.965,0,0,0,5.543-19.312V57.567c0-11.249-2.792-20.385-8.3-27.154h0c-5.62-6.9-14.284-10.4-25.751-10.4s-20.135,3.5-25.752,10.4c-5.506,6.765-8.3,15.9-8.3,27.154v7.26h13.8V56.969c0-7.558,1.65-13.565,4.9-17.856,3.153-4.156,8.1-6.177,15.131-6.177s11.97,2.049,15.123,6.265c3.259,4.357,4.912,10.6,4.912,18.565v4.983c0,6.114-1.7,10.959-5.2,14.812-3.463,3.816-8.065,5.855-14.066,6.231H227.065V96.719h12.121c6.563.253,11.367,2.132,14.677,5.74s4.979,8.822,4.979,15.5v10.763c0,7.962-1.653,14.208-4.912,18.566-3.152,4.215-8.1,6.263-15.123,6.263s-11.97-2.048-15.122-6.263c-3.26-4.359-4.913-10.4-4.913-17.968V118.674h-13.8v10.251c0,11.252,2.791,20.388,8.3,27.152,5.617,6.9,14.281,10.406,25.752,10.406s20.13-3.5,25.751-10.406c5.506-6.768,8.3-15.9,8.3-27.152V118.16c0-7.461-1.791-13.954-5.326-19.3a26.172,26.172,0,0,0-10.549-9.155A29.34,29.34,0,0,0,267.524,80.266Z" transform="translate(-133.987 -20.009)" fill="#152a50"/>
      </g>
      <text id="_IC" data-name="#IC" transform="translate(0 178)" fill="#222" font-size="198" font-family="BebasNeue-Regular, Bebas Neue"><tspan x="0" y="0">#IC</tspan></text>
    </g>
  </g>
</svg>
