<svg width="43" height="43" viewBox="0 0 43 43" fill="none" xmlns="http://www.w3.org/2000/svg">
<path d="M39.5 0.5H3.40625C1.8125 0.5 0.5 1.90625 0.5 3.59375V39.5C0.5 41.1875 1.8125 42.5 3.40625 42.5H39.5C41.0938 42.5 42.5 41.1875 42.5 39.5V3.59375C42.5 1.90625 41.0938 0.5 39.5 0.5ZM13.1562 36.5H6.96875V16.5312H13.1562V36.5ZM10.0625 13.7188C8 13.7188 6.40625 12.125 6.40625 10.1562C6.40625 8.1875 8 6.5 10.0625 6.5C12.0312 6.5 13.625 8.1875 13.625 10.1562C13.625 12.125 12.0312 13.7188 10.0625 13.7188ZM36.5 36.5H30.2188V26.75C30.2188 24.5 30.2188 21.5 27.0312 21.5C23.75 21.5 23.2812 24.0312 23.2812 26.6562V36.5H17.0938V16.5312H23V19.25H23.0938C23.9375 17.6562 26 15.9688 29 15.9688C35.2812 15.9688 36.5 20.1875 36.5 25.5312V36.5Z" fill="#152A50"/>
</svg>
