<svg width="49" height="39" viewBox="0 0 49 39" fill="none" xmlns="http://www.w3.org/2000/svg">
<path d="M43.5312 9.75C43.5312 10.2188 43.5312 10.5938 43.5312 11.0625C43.5312 24.0938 33.6875 39 15.5938 39C9.96875 39 4.8125 37.4062 0.5 34.5938C1.25 34.6875 2 34.7812 2.84375 34.7812C7.4375 34.7812 11.6562 33.1875 15.0312 30.5625C10.7188 30.4688 7.0625 27.6562 5.84375 23.7188C6.5 23.8125 7.0625 23.9062 7.71875 23.9062C8.5625 23.9062 9.5 23.7188 10.25 23.5312C5.75 22.5938 2.375 18.6562 2.375 13.875V13.7812C3.6875 14.5312 5.28125 14.9062 6.875 15C4.15625 13.2188 2.46875 10.2188 2.46875 6.84375C2.46875 4.96875 2.9375 3.28125 3.78125 1.875C8.65625 7.78125 15.9688 11.7188 24.125 12.1875C23.9375 11.4375 23.8438 10.6875 23.8438 9.9375C23.8438 4.5 28.25 0.09375 33.6875 0.09375C36.5 0.09375 39.0312 1.21875 40.9062 3.1875C43.0625 2.71875 45.2188 1.875 47.0938 0.75C46.3438 3.09375 44.8438 4.96875 42.7812 6.1875C44.75 6 46.7188 5.4375 48.4062 4.6875C47.0938 6.65625 45.4062 8.34375 43.5312 9.75Z" fill="#152A50"/>
</svg>
