<svg width="43" height="43" viewBox="0 0 43 43" fill="none" xmlns="http://www.w3.org/2000/svg">
<path d="M38.0312 0.5H4.375C2.125 0.5 0.25 2.46875 0.25 4.71875V38.375C0.25 40.625 2.125 42.5 4.375 42.5H38.0312C40.2812 42.5 42.25 40.625 42.25 38.375V4.71875C42.25 2.46875 40.2812 0.5 38.0312 0.5ZM35.5938 14.4688C35.4062 17.4688 33.3438 21.5 29.4062 26.6562C25.2812 32 21.7188 34.625 18.9062 34.625C17.125 34.625 15.625 33.0312 14.4062 29.75C11.9688 21.0312 11.0312 15.875 9.0625 15.875C8.78125 15.875 8.03125 16.3438 6.625 17.2812L5.21875 15.5C8.6875 12.4062 12.0625 9.03125 14.125 8.84375C16.4688 8.5625 17.9688 10.1562 18.5312 13.625C20.4062 25.9062 21.3438 27.7812 24.8125 22.25C26.125 20.1875 26.7812 18.6875 26.875 17.6562C27.25 14.5625 24.4375 14.75 22.5625 15.5938C24.0625 10.625 26.9688 8.28125 31.0938 8.46875C34.2812 8.46875 35.6875 10.5312 35.5938 14.4688Z" fill="#152A50"/>
</svg>
